<svg xmlns="http://www.w3.org/2000/svg" viewBox="0 0 647 141">
  <path fill="#111" d="M.2 44.9v33.5L76.5 34l76.3 44.4V44.9L76.5.6Z"/>
  <path fill="#111" d="M.2 107.5V141l76.3-44.3 76.3 44.3v-33.5L76.5 63.2Z"/>
  <path fill="#111" d="M647 67V32.5c0-.6 0-1.3-.2-2l-.5-2-.5-1q-1-2.6-2.6-4.9a19.1 19.1 0 0 0-4-4q-2.1-1.4-4.2-1.4h0-91.4l-1.3 2.1V38l1.4 2.3h76.7V59h-66.1a7 7 0 0 0-3.3.8l-1.1.8a16.8 16.8 0 0 0-3.8 3.8q-1.7 2.3-2.7 5-1.1 2.8-1.1 5v34.4l.3 2.5.7 2.4h0q1.1 2.7 2.8 5c.9 1.2 1.9 2.3 3 3.3l.8.6q2.1 1.5 4.4 1.5h91.2l1.5-2.3v-18.6l-1.6-2.3h-76.6V82.3H635c.9 0 1.8-.1 2.6-.5l1.6-1.1q2.2-1.5 4-4 1.7-2.3 2.6-5c.4-.6.6-1.2.9-2ZM201.7 24.8l52 99.4h24L330 24.8l.3-.5.2-.9.1-1.1v-3.8l-.1-.8-1-.5h-26.6l-36.6 74.4-.6.1-37-74.5h-27c-.3 0-.4.2-.5.5l-.2 1.5v4.2l.2.4Zm197.7 0 52.1 99.4h24l52.2-99.4.4-.5.1-.9.2-1.1v-3.8l-.3-.8q0-.4-.8-.5H500.7l-36.6 74.4-.7.1-37-74.5h-27c-.2 0-.4.2-.5.5l-.1 1.5v4.2l.1.4Zm-16.1-7.6 1.4 2.1V122l-1.4 2.3h-22.8l-2.3-2.5V40.3H346l-1.5-1.8V18.8l1.5-1.6Z" />
</svg>
